<svg width="25" height="21" viewBox="0 0 25 21" fill="none" xmlns="http://www.w3.org/2000/svg">
<path d="M24.6784 10.9879L20.3289 6.93083V2.21266C20.3289 1.77664 19.9755 1.42319 19.5395 1.42319H18.0921C17.6561 1.42319 17.3026 1.77664 17.3026 2.21266V4.10798L13.1899 0.271791C12.8016 -0.090597 12.1984 -0.090597 11.81 0.271791L0.321618 10.9879C-0.0869319 11.369 -0.109226 12.009 0.271794 12.4176C0.652685 12.826 1.29281 12.8484 1.70151 12.4674L12.5 2.39483L23.2985 12.4674C23.4934 12.6491 23.741 12.7392 23.9881 12.7392C24.2589 12.7392 24.5289 12.6312 24.7282 12.4176C25.1092 12.009 25.0869 11.369 24.6784 10.9879Z" fill="#D3A45C"/>
<path d="M3.90186 12.117V19.4147C3.90186 20.2933 4.61285 21.0043 5.49145 21.0043H9.44233V14.5245H15.5579V21.0043H19.5088C20.3874 21.0043 21.0984 20.2933 21.0984 19.4147V12.117L12.5001 4.09674L3.90186 12.117Z" fill="#D3A45C"/>
</svg>
