<svg width="34" height="34" viewBox="0 0 34 34" fill="none" xmlns="http://www.w3.org/2000/svg">
<path fill-rule="evenodd" clip-rule="evenodd" d="M3.14039 11.8349C2.64042 11.8354 2.14936 11.9674 1.71644 12.2175C1.28353 12.4676 0.923959 12.8271 0.673782 13.26C0.423605 13.6929 0.291607 14.1839 0.291018 14.6839C0.290429 15.1839 0.42127 15.6752 0.670426 16.1087C0.919583 16.5422 1.2783 16.9026 1.71063 17.1537C2.14295 17.4048 2.6337 17.5379 3.13367 17.5396C3.63365 17.5413 4.12528 17.4116 4.55931 17.1634C4.99334 16.9152 5.3545 16.5573 5.6066 16.1255C5.64822 16.0545 5.7077 15.9956 5.77913 15.9547C5.85056 15.9137 5.93146 15.8922 6.01378 15.8922L9.42169 15.8905L9.79434 15.5952C9.86711 15.5377 9.9552 15.5029 10.0476 15.4952C10.14 15.4874 10.2327 15.5071 10.314 15.5517L10.8516 15.8459L11.2301 15.4842C11.3067 15.4113 11.4057 15.3662 11.511 15.3561C11.6164 15.3461 11.722 15.3717 11.8111 15.4288L12.5294 15.8906H13.645L14.5531 14.9827L13.6453 14.075H6.28519C6.17955 14.075 6.07695 14.0397 5.99365 13.9748C5.91035 13.9098 5.85114 13.8189 5.82542 13.7164C5.6255 13.1649 5.26046 12.6884 4.78 12.3518C4.29955 12.0152 3.72703 11.8348 3.14039 11.8353V11.8349ZM2.52544 15.0302C2.45642 15.1277 2.36023 15.2028 2.24884 15.2461C2.13745 15.2894 2.01579 15.2989 1.89902 15.2736C1.78224 15.2482 1.67551 15.189 1.59212 15.1034C1.50872 15.0179 1.45236 14.9096 1.43004 14.7922C1.40772 14.6748 1.42043 14.5535 1.46659 14.4432C1.51276 14.333 1.59033 14.2388 1.68965 14.1723C1.78897 14.1059 1.90564 14.0701 2.02514 14.0695C2.14464 14.0689 2.26168 14.1034 2.36168 14.1689C2.4302 14.2136 2.48899 14.2718 2.53453 14.3398C2.58007 14.4078 2.61142 14.4843 2.62671 14.5647C2.642 14.6451 2.64091 14.7278 2.62351 14.8078C2.60611 14.8878 2.57275 14.9634 2.52544 15.0302ZM0.645283 25.9608L7.99294 33.7584L11.1467 30.7866L3.79908 22.9889L0.645283 25.9608ZM8.43366 31.1141C8.37931 31.1892 8.30411 31.2467 8.21738 31.2795C8.13064 31.3123 8.0362 31.3189 7.94575 31.2985C7.85531 31.2781 7.77284 31.2316 7.70857 31.1648C7.6443 31.098 7.60105 31.0137 7.5842 30.9226C7.56735 30.8314 7.57763 30.7373 7.61377 30.6519C7.6499 30.5665 7.7103 30.4936 7.78748 30.4422C7.86466 30.3908 7.95523 30.3632 8.04794 30.3629C8.14066 30.3625 8.23145 30.3893 8.30906 30.44C8.36275 30.475 8.40878 30.5206 8.44433 30.5739C8.47989 30.6273 8.50425 30.6873 8.51592 30.7503C8.5276 30.8133 8.52636 30.8781 8.51226 30.9406C8.49817 31.0032 8.47152 31.0622 8.43394 31.1141H8.43366ZM10.3542 19.5109C11.7912 18.7516 13.1464 18.5881 14.7024 18.9808C14.7416 18.9906 14.782 18.9954 14.8225 18.9949C17.7314 18.9516 19.8217 18.2978 22.4398 17.3101C23.0282 17.0882 23.8774 16.5877 24.4968 16.9008C24.6487 16.9769 24.7776 17.0921 24.8701 17.2346C24.9682 17.3888 25.0213 17.5673 25.0233 17.75C25.0353 18.3533 24.4819 19.1607 23.9756 19.451C22.9945 19.9362 22.287 20.3384 21.2148 20.6723C20.6016 20.8632 20.1508 20.9241 19.5349 21.0328C19.2678 21.0612 18.9989 21.0692 18.7306 21.0565C18.6067 21.0459 18.4836 21.0846 18.388 21.1641C18.2924 21.2436 18.232 21.3576 18.2198 21.4814C18.2076 21.6051 18.2446 21.7287 18.3229 21.8254C18.4011 21.922 18.5143 21.984 18.6379 21.9978C18.9473 22.0328 19.2465 22.0664 19.5356 22.0986C20.5916 22.283 21.9477 22.3625 23.0428 22.4679C23.7616 22.5372 24.4795 22.6218 25.2023 22.6292C25.2457 22.6315 25.2891 22.6278 25.3315 22.6182C27.3669 22.1542 28.3749 21.6736 29.6472 21.0674C30.3811 20.7178 32.2994 19.6317 33.134 20.0577C33.3741 20.1802 33.4309 20.3751 33.368 20.6287C33.1571 21.4795 31.9547 22.2207 31.257 22.6192C28.9809 23.9772 27.1155 24.9893 25.6608 25.6555C24.7711 26.0628 23.6482 26.569 22.6563 26.5953C20.6685 26.651 19.1143 26.4937 17.8338 26.3641C14.6921 26.0461 13.09 25.8846 10.7787 29.0172L5.58305 23.5033C7.4291 21.5794 8.93716 20.2595 10.3545 19.5109H10.3542ZM13.6656 16.8383H13.8414C13.9045 16.8384 13.967 16.8258 14.0252 16.8013C14.0833 16.7769 14.136 16.741 14.1801 16.6958L15.5582 15.3177C15.647 15.2288 15.6969 15.1083 15.6969 14.9827C15.6969 14.8571 15.647 14.7366 15.5582 14.6477L14.1766 13.2661C14.1326 13.222 14.0804 13.187 14.0229 13.1632C13.9654 13.1394 13.9038 13.1271 13.8415 13.1272H13.6658V9.12725L21.9016 2.82915L30.1375 9.12725V19.7907C29.8099 19.9406 29.5184 20.0795 29.2401 20.2122C28.026 20.7906 27.0616 21.25 25.1755 21.6846C25.0494 21.6822 24.8773 21.6736 24.6592 21.6588V20.147C25.3326 19.7197 25.9839 18.553 25.9676 17.7314C25.9645 17.3831 25.8653 17.0425 25.681 16.747C25.4966 16.4515 25.2343 16.2127 24.9229 16.0568C24.8377 16.0138 24.7496 15.977 24.6592 15.9468V14.1682C24.6592 14.0426 24.6093 13.922 24.5204 13.8332C24.4315 13.7443 24.311 13.6944 24.1853 13.6944H19.6178C19.4921 13.6944 19.3716 13.7443 19.2827 13.8332C19.1939 13.922 19.1439 14.0426 19.1439 14.1682V17.4289C17.7526 17.8146 16.3182 18.0232 14.8747 18.0498C14.4775 17.9508 14.0732 17.8834 13.6653 17.8484L13.6656 16.8383ZM20.0916 14.6423H23.7115V15.8672C23.503 15.8994 23.3002 15.9618 23.1096 16.0523C22.8288 16.153 22.4734 16.2871 22.107 16.425C21.4772 16.6625 20.8113 16.9137 20.0916 17.1457V14.6423ZM23.7115 21.5821C23.1356 21.5302 22.5601 21.4724 21.9849 21.4126C22.5754 21.2007 23.1521 20.952 23.7115 20.6681V21.5821ZM10.2234 9.75465C10.1196 9.6181 10.074 9.44604 10.0966 9.27601C10.1192 9.10598 10.2081 8.95178 10.3439 8.84705L21.4252 0.373132C21.4869 0.325697 21.5567 0.289953 21.6313 0.267663C21.8098 0.232682 21.9933 0.232682 22.1718 0.267663C22.2464 0.289923 22.3163 0.32567 22.378 0.373132L33.4592 8.84705C33.5955 8.95143 33.6848 9.10568 33.7074 9.27589C33.73 9.4461 33.6841 9.61831 33.5797 9.75465C33.4754 9.89098 33.3211 9.98027 33.1509 10.0029C32.9807 10.0255 32.8085 9.97954 32.6721 9.87516L22.1961 1.8639C22.1136 1.79841 22.0117 1.7623 21.9064 1.76128C21.8012 1.76026 21.6985 1.79439 21.6149 1.85827L11.131 9.87516C10.9944 9.97898 10.8224 10.0246 10.6523 10.002C10.4823 9.97942 10.3281 9.8905 10.2234 9.75465Z" fill="#D3A45C"/>
</svg>
