<svg width="84" height="84" viewBox="0 0 84 84" fill="none" xmlns="http://www.w3.org/2000/svg">
<path d="M73.8943 69.8028H37.9363L26.9603 68.6028L15.9844 69.8028H12.8091L11.0591 68.6028C10.3123 68.6028 9.70703 67.9974 9.70703 67.2508L10.1049 26.821C10.1049 26.0742 10.7103 25.469 11.4569 25.469H73.8943C74.6412 25.469 75.2464 26.0744 75.2464 26.821V68.4507C75.2466 69.1974 74.6412 69.8028 73.8943 69.8028Z" fill="#FEC165"/>
<path d="M12.8092 25.4688V69.8029H10.105C9.35799 69.8029 8.75293 69.1978 8.75293 68.4508V26.8208C8.75293 26.0738 9.35799 25.4688 10.105 25.4688H12.8092Z" fill="#FEA95C"/>
<path d="M67.8584 58.3537H46.8021V39.3177C46.8021 38.851 47.1805 38.4727 47.6472 38.4727H56.0636L57.3312 39.4905L58.5987 38.4727H67.0133C67.4801 38.4727 67.8584 38.851 67.8584 39.3177V58.3537Z" fill="#FEA95C"/>
<path d="M30.3631 0L29.9411 12.0665L23.7141 27.1453H11.5229L15.2427 11.3029L22.6054 0L30.3631 0Z" fill="#6B6867"/>
<path d="M22.6054 0L11.523 27.1453H3.92755L2.18881 26.7456C1.48072 26.7456 1.03611 25.98 1.38769 25.3647L14.9286 0.923508C15.0925 0.636234 15.3985 0.458719 15.7313 0.458719L19.7947 0L22.6054 0Z" fill="#7C7A79"/>
<path d="M48.0944 27.1453H35.905L35.3766 10.2134L38.1209 0H45.8786L49.6024 10.9211L48.0944 27.1453Z" fill="#6B6867"/>
<path d="M19.7944 0L3.92729 27.1453H0.923797C0.215703 27.1453 -0.228907 26.3796 0.122679 25.7644L14.582 0.464789C14.7459 0.177516 15.0519 0 15.3848 0L19.7944 0Z" fill="#6B6867"/>
<path d="M72.4766 27.1453H60.2854L53.6365 12.5756V0H61.3943L68.4367 12.0028L72.4766 27.1453Z" fill="#6B6867"/>
<path d="M38.1209 0L35.9051 27.1453H23.7141L30.3631 0H38.1209Z" fill="#7C7A79"/>
<path d="M60.2855 27.1453H48.0945L45.8787 0H53.6365L60.2855 27.1453Z" fill="#7C7A79"/>
<path d="M83.0755 27.1453H72.4765L61.3943 0H68.6147C68.9476 0 69.2535 0.177516 69.4174 0.464789L83.8768 25.7645C84.2282 26.3798 83.7836 27.1453 83.0755 27.1453Z" fill="#7C7A79"/>
<path d="M42.7058 8.12945H41.2938C41.1049 8.12945 40.9177 7.39347 40.7322 7.40692C37.7223 7.6266 35.1985 9.59781 34.1761 12.3058C33.9997 12.7729 35.2087 13.0771 35.1268 13.5827C35.0701 13.9332 33.6967 14.4762 33.6895 14.8409C33.6885 14.8911 33.688 14.9415 33.688 14.9919V19.7587H50.3115V14.9922C50.3115 14.9417 50.311 14.8915 50.31 14.8412C50.3026 14.4636 49.3607 13.9351 49.3002 13.5727C49.218 13.0804 49.9955 12.7614 49.8234 12.306C48.8008 9.59798 46.2772 7.6266 43.2673 7.40708C43.082 7.39347 42.8947 8.12945 42.7058 8.12945Z" fill="#F2FBFF"/>
<path d="M35.2719 64.7988H18.6484V39.3177C18.6484 38.851 19.0268 38.4727 19.4935 38.4727H34.4268C34.8936 38.4727 35.2719 38.851 35.2719 39.3177V64.7988Z" fill="#7C7A79"/>
<path d="M37.9363 69.8028H15.9843V64.0157C15.9843 63.6423 16.2869 63.3396 16.6604 63.3396H37.2602C37.6336 63.3396 37.9363 63.6423 37.9363 64.0157V69.8028Z" fill="#6B6867"/>
<path d="M58.5987 38.4727V48.4293C58.5987 49.129 58.0309 49.6968 57.3311 49.6968C56.6298 49.6968 56.0636 49.1288 56.0636 48.4293V38.4727H58.5987Z" fill="#FE9738"/>
<path d="M23.6616 53.8311C22.9614 53.8311 22.394 53.2636 22.394 52.5635V50.0283C22.394 49.3282 22.9615 48.7607 23.6616 48.7607C24.3618 48.7607 24.9291 49.3282 24.9291 50.0283V52.5635C24.9293 53.2634 24.3618 53.8311 23.6616 53.8311Z" fill="#6B6867"/>
<path d="M50.3102 14.8412H43.2673V19.7594H40.7321V14.8412H33.6892C33.7061 13.9505 33.8767 13.0968 34.176 12.3059H40.7321V7.40633C40.918 7.39288 41.1039 7.38599 41.2932 7.38599H42.7061C42.8954 7.38599 43.0813 7.39271 43.2672 7.40633V12.3061H49.8233C50.1225 13.097 50.2933 13.9505 50.3102 14.8412Z" fill="#DFEEF4"/>
<path d="M51.8042 21.0265H32.1953C31.4951 21.0265 30.9277 20.4591 30.9277 19.759C30.9277 19.0589 31.4952 18.4915 32.1953 18.4915H51.8044C52.5046 18.4915 53.0719 19.0589 53.0719 19.759C53.0719 20.4591 52.5044 21.0265 51.8042 21.0265Z" fill="#DFEEF4"/>
<path d="M84 63.7183C84 66.8687 83.277 69.8618 81.9952 72.5219C81.9952 72.5219 80.4666 74.2841 79.7347 75.282C76.044 80.3139 70.7649 82.7504 64.0463 82.7504C52.8449 82.7504 44.7189 74.9115 44.7189 63.7103C44.7189 56.7094 47.8515 51.5429 52.3785 46.9006C55.6154 44.7138 59.5176 43.4368 63.7181 43.4368C74.9195 43.4368 84 52.5171 84 63.7183Z" fill="#FF7E7B"/>
<path d="M81.9951 72.5219C78.7146 79.3078 71.7599 84 63.7183 84C52.5175 84 43.4365 74.9188 43.4365 63.7183C43.4365 56.6467 46.8907 50.5275 52.3786 46.9004C51.0907 49.5658 50.5352 52.4467 50.5352 55.6055C50.5352 66.8061 59.6164 75.8873 70.8169 75.8873C74.9459 75.8873 78.7923 74.643 81.9951 72.5219Z" fill="#F46969"/>
<path d="M67.6622 63.3599L73.9115 57.1106C74.8768 56.1452 74.9656 54.5729 74.0467 53.5634C73.0657 52.4855 71.3956 52.456 70.3768 53.4746L64.0768 59.7746C63.8787 59.9727 63.5577 59.9727 63.3596 59.7746L57.1103 53.5253C56.145 52.56 54.5726 52.4712 53.5631 53.3901C52.4853 54.3711 52.4557 56.0412 53.4744 57.0601L59.7744 63.3601C59.9724 63.5581 59.9724 63.8791 59.7744 64.0772L55.2487 68.6028L53.9293 70.6451C52.964 71.6104 52.8833 72.5941 53.802 73.6038C54.783 74.6817 55.8692 74.6226 56.888 73.6038L58.9608 72.0613L63.3598 67.6623C63.5578 67.4642 63.8789 67.4642 64.0769 67.6623L70.3262 73.9116C71.2916 74.8769 72.864 74.9657 73.8734 74.0468C74.9513 73.0658 74.9808 71.3957 73.9622 70.3768L67.6622 64.0768C67.4642 63.879 67.4642 63.5579 67.6622 63.3599Z" fill="#F2FBFF"/>
<path d="M58.9605 72.061L57.059 73.9625C56.0415 74.9816 54.37 74.9513 53.3897 73.8729C52.4703 72.8639 52.5599 71.292 53.5249 70.327L55.2489 68.603C56.3356 69.9044 57.583 71.0689 58.9605 72.061Z" fill="#DFEEF4"/>
</svg>
