<svg width="13" height="14" viewBox="0 0 13 14" fill="none" xmlns="http://www.w3.org/2000/svg">
<path d="M12 7.50003V9.33336C12 9.98167 11.7425 10.6034 11.284 11.0618C10.8256 11.5203 10.2039 11.7778 9.55556 11.7778H3.44444C2.79614 11.7778 2.17438 11.5203 1.71596 11.0618C1.25754 10.6034 1 9.98167 1 9.33336V7.86669C1 7.76945 1.03863 7.67618 1.10739 7.60742C1.17616 7.53866 1.26942 7.50003 1.36667 7.50003H12ZM12 7.50003V3.83336C12 3.18505 11.7425 2.5633 11.284 2.10488C10.8256 1.64645 10.2039 1.38892 9.55556 1.38892H6.5M8.94444 11.7778L9.55556 13M4.05556 11.7778L3.44444 13" stroke="#919191" stroke-linecap="round" stroke-linejoin="round"/>
<path d="M8.57766 4.44447H4.42211C4.21983 4.44447 4.05789 4.28069 4.07989 4.07903C4.16911 3.26808 4.58283 1.38892 6.49989 1.38892C8.41694 1.38892 8.83066 3.26808 8.91989 4.07903C8.94189 4.28069 8.77994 4.44447 8.57766 4.44447Z" stroke="#919191" stroke-linecap="round" stroke-linejoin="round"/>
</svg>
