<svg width="24" height="22" viewBox="0 0 24 22" fill="none" xmlns="http://www.w3.org/2000/svg">
<path d="M7.44413 3.35889H9.22743C9.43907 3.35859 9.64869 3.40001 9.84431 3.48079C10.0399 3.56158 10.2177 3.68013 10.3675 3.82968C10.5172 3.97922 10.636 4.15683 10.7171 4.35233C10.7982 4.54783 10.8399 4.7574 10.8399 4.96904H5.83398C5.83398 4.542 6.00362 4.13245 6.30559 3.83049C6.60755 3.52853 7.01709 3.35889 7.44413 3.35889Z" fill="#D3A45C"/>
<path d="M13.3423 1.90735e-06H24.0002V0.767836H13.3423V1.90735e-06Z" fill="#D3A45C"/>
<path d="M3.19165 20.1V21.6472L5.18802 21.6356L5.75622 20.7327C4.86351 20.7263 3.98488 20.5095 3.19165 20.1Z" fill="#D3A45C"/>
<path d="M15.6443 20.7331L16.2125 21.6356L18.2089 21.6472V20.0984C17.4156 20.5082 16.5371 20.7256 15.6443 20.7331Z" fill="#D3A45C"/>
<path d="M14.5496 0.383917V17.937H19.3984V11.4442H20.1663V17.937H22.7923V0.383917H14.5496ZM17.8562 7.14085H17.0884V0.383917H17.8562V7.14085Z" fill="#D3A45C"/>
<path d="M13.7818 10.4118H2.31722V3.00223C2.31753 2.69805 2.43847 2.4064 2.65353 2.19128C2.86858 1.97615 3.16018 1.85511 3.46437 1.8547H6.25468L7.03134 2.63175C7.16816 2.60688 7.3069 2.59403 7.44597 2.59336H8.07598L6.68236 1.19974C6.61038 1.12774 6.51274 1.08728 6.41093 1.08725H3.46283C2.95573 1.08827 2.46969 1.29013 2.11108 1.64867C1.75247 2.00721 1.55051 2.49321 1.54939 3.00031V10.4118H1.06565C0.794164 10.4118 0.533788 10.5197 0.341779 10.7116C0.14977 10.9035 0.0418498 11.1639 0.041748 11.4354C0.0424568 11.6689 0.123832 11.8949 0.272098 12.0753H13.7818V10.4118Z" fill="#D3A45C"/>
<path d="M13.7816 18.7048V12.8432H0.84668V15.0142C0.84668 16.3277 1.36846 17.5874 2.29724 18.5162C3.22602 19.445 4.48572 19.9668 5.79921 19.9668H15.6006C16.8175 19.9672 17.9916 19.5176 18.8969 18.7044L13.7816 18.7048ZM5.79921 18.6357C4.83911 18.6347 3.91862 18.2529 3.23969 17.574C2.56076 16.8952 2.17884 15.9747 2.17772 15.0146H2.94555C2.94647 15.7711 3.24743 16.4964 3.7824 17.0313C4.31738 17.5662 5.04269 17.8671 5.79921 17.8679V18.6357Z" fill="#D3A45C"/>
</svg>
