<svg width="15" height="9" viewBox="0 0 15 9" fill="none" xmlns="http://www.w3.org/2000/svg">
<mask id="path-1-inside-1_30_2412" fill="white">
<path d="M0 9V4.90909C0 4.66691 0.0711112 4.40891 0.213333 4.13509C0.355556 3.86127 0.562222 3.65564 0.833333 3.51818V1.63636C0.833333 1.17491 0.993611 0.786818 1.31417 0.472091C1.63472 0.157364 2.03 0 2.5 0H6.25C6.53722 0 6.7825 0.0580908 6.98583 0.174273C7.18861 0.289909 7.36 0.45 7.5 0.654546C7.64 0.45 7.81139 0.289909 8.01417 0.174273C8.2175 0.0580908 8.46278 0 8.75 0H12.5C12.97 0 13.3653 0.157364 13.6858 0.472091C14.0064 0.786818 14.1667 1.17491 14.1667 1.63636V3.51818C14.4383 3.65564 14.645 3.86127 14.7867 4.13509C14.9289 4.40891 15 4.66691 15 4.90909V9H14.1667V7.36364H0.833333V9H0ZM7.91667 3.27273H13.3333V1.63636C13.3333 1.40455 13.2533 1.21036 13.0933 1.05382C12.9333 0.897273 12.7356 0.818727 12.5 0.818182H8.75C8.51389 0.818182 8.31611 0.896727 8.15667 1.05382C7.99722 1.21091 7.91722 1.40509 7.91667 1.63636V3.27273ZM1.66667 3.27273H7.08333V1.63636C7.08333 1.40455 7.00333 1.21036 6.84333 1.05382C6.68333 0.897273 6.48556 0.818727 6.25 0.818182H2.5C2.26389 0.818182 2.06611 0.896727 1.90667 1.05382C1.74722 1.21091 1.66722 1.40509 1.66667 1.63636V3.27273ZM0.833333 6.54545H14.1667V4.90909C14.1667 4.67727 14.0867 4.48309 13.9267 4.32655C13.7667 4.17 13.5689 4.09145 13.3333 4.09091H1.66667C1.43056 4.09091 1.23278 4.16945 1.07333 4.32655C0.913889 4.48364 0.833889 4.67782 0.833333 4.90909V6.54545Z"/>
</mask>
<path d="M0 9V4.90909C0 4.66691 0.0711112 4.40891 0.213333 4.13509C0.355556 3.86127 0.562222 3.65564 0.833333 3.51818V1.63636C0.833333 1.17491 0.993611 0.786818 1.31417 0.472091C1.63472 0.157364 2.03 0 2.5 0H6.25C6.53722 0 6.7825 0.0580908 6.98583 0.174273C7.18861 0.289909 7.36 0.45 7.5 0.654546C7.64 0.45 7.81139 0.289909 8.01417 0.174273C8.2175 0.0580908 8.46278 0 8.75 0H12.5C12.97 0 13.3653 0.157364 13.6858 0.472091C14.0064 0.786818 14.1667 1.17491 14.1667 1.63636V3.51818C14.4383 3.65564 14.645 3.86127 14.7867 4.13509C14.9289 4.40891 15 4.66691 15 4.90909V9H14.1667V7.36364H0.833333V9H0ZM7.91667 3.27273H13.3333V1.63636C13.3333 1.40455 13.2533 1.21036 13.0933 1.05382C12.9333 0.897273 12.7356 0.818727 12.5 0.818182H8.75C8.51389 0.818182 8.31611 0.896727 8.15667 1.05382C7.99722 1.21091 7.91722 1.40509 7.91667 1.63636V3.27273ZM1.66667 3.27273H7.08333V1.63636C7.08333 1.40455 7.00333 1.21036 6.84333 1.05382C6.68333 0.897273 6.48556 0.818727 6.25 0.818182H2.5C2.26389 0.818182 2.06611 0.896727 1.90667 1.05382C1.74722 1.21091 1.66722 1.40509 1.66667 1.63636V3.27273ZM0.833333 6.54545H14.1667V4.90909C14.1667 4.67727 14.0867 4.48309 13.9267 4.32655C13.7667 4.17 13.5689 4.09145 13.3333 4.09091H1.66667C1.43056 4.09091 1.23278 4.16945 1.07333 4.32655C0.913889 4.48364 0.833889 4.67782 0.833333 4.90909V6.54545Z" fill="#919191"/>
<path d="M0 9H-1V10H0V9ZM0.833333 3.51818L1.28554 4.4101L1.83333 4.13236V3.51818H0.833333ZM6.98583 0.174273L6.48972 1.04253L6.49046 1.04295L6.98583 0.174273ZM7.5 0.654546L6.67478 1.21936L7.5 2.42504L8.32522 1.21936L7.5 0.654546ZM8.01417 0.174273L8.50954 1.04295L8.51028 1.04253L8.01417 0.174273ZM14.1667 1.63636H13.1667H14.1667ZM14.1667 3.51818H13.1667V4.13293L13.7152 4.41047L14.1667 3.51818ZM14.7867 4.13509L13.8985 4.59461L13.8992 4.59603L14.7867 4.13509ZM15 9V10H16V9H15ZM14.1667 9H13.1667V10H14.1667V9ZM14.1667 7.36364H15.1667V6.36364H14.1667V7.36364ZM0.833333 7.36364V6.36364H-0.166667V7.36364H0.833333ZM0.833333 9V10H1.83333V9H0.833333ZM7.91667 3.27273H6.91667V4.27273H7.91667V3.27273ZM13.3333 3.27273V4.27273H14.3333V3.27273H13.3333ZM12.5 0.818182L12.5023 -0.181818H12.5V0.818182ZM7.91667 1.63636L6.91667 1.63396V1.63636H7.91667ZM1.66667 3.27273H0.666667V4.27273H1.66667V3.27273ZM7.08333 3.27273V4.27273H8.08333V3.27273H7.08333ZM6.25 0.818182L6.25232 -0.181818H6.25V0.818182ZM1.66667 1.63636L0.666667 1.63396V1.63636H1.66667ZM0.833333 6.54545H-0.166667V7.54545H0.833333V6.54545ZM14.1667 6.54545V7.54545H15.1667V6.54545H14.1667ZM13.3333 4.09091L13.3356 3.09091H13.3333V4.09091ZM0.833333 4.90909L-0.166667 4.90669V4.90909H0.833333ZM1 9V4.90909H-1V9H1ZM1 4.90909C1 4.8653 1.01277 4.76545 1.10077 4.59603L-0.6741 3.67415C-0.870548 4.05237 -1 4.46851 -1 4.90909H1ZM1.10077 4.59603C1.14812 4.50485 1.20401 4.45143 1.28554 4.4101L0.381129 2.62627C-0.0795635 2.85984 -0.437012 3.21769 -0.6741 3.67415L1.10077 4.59603ZM1.83333 3.51818V1.63636H-0.166667V3.51818H1.83333ZM1.83333 1.63636C1.83333 1.43511 1.89149 1.30668 2.01476 1.18565L0.613577 -0.241473C0.0957314 0.266957 -0.166667 0.914709 -0.166667 1.63636H1.83333ZM2.01476 1.18565C2.13894 1.06373 2.27858 1 2.5 1V-1C1.78142 -1 1.1305 -0.748998 0.613577 -0.241473L2.01476 1.18565ZM2.5 1H6.25V-1H2.5V1ZM6.25 1C6.40235 1 6.46818 1.03022 6.48972 1.04253L7.48194 -0.693986C7.09682 -0.91404 6.67209 -1 6.25 -1V1ZM6.49046 1.04295C6.55362 1.07897 6.61489 1.13186 6.67478 1.21936L8.32522 0.0897302C8.10511 -0.231859 7.8236 -0.499153 7.48121 -0.694407L6.49046 1.04295ZM8.32522 1.21936C8.38511 1.13186 8.44638 1.07897 8.50954 1.04295L7.51879 -0.694407C7.1764 -0.499153 6.89489 -0.231859 6.67478 0.0897302L8.32522 1.21936ZM8.51028 1.04253C8.53182 1.03022 8.59765 1 8.75 1V-1C8.32791 -1 7.90318 -0.91404 7.51805 -0.693986L8.51028 1.04253ZM8.75 1H12.5V-1H8.75V1ZM12.5 1C12.7214 1 12.8611 1.06373 12.9852 1.18565L14.3864 -0.241473C13.8695 -0.748998 13.2186 -1 12.5 -1V1ZM12.9852 1.18565C13.1085 1.30668 13.1667 1.43511 13.1667 1.63636H15.1667C15.1667 0.91471 14.9043 0.266957 14.3864 -0.241473L12.9852 1.18565ZM13.1667 1.63636V3.51818H15.1667V1.63636H13.1667ZM13.7152 4.41047C13.7969 4.45183 13.852 4.5048 13.8985 4.59461L15.6748 3.67557C15.438 3.21774 15.0797 2.85944 14.6181 2.6259L13.7152 4.41047ZM13.8992 4.59603C13.9872 4.76545 14 4.86531 14 4.90909H16C16 4.46851 15.8705 4.05237 15.6741 3.67415L13.8992 4.59603ZM14 4.90909V9H16V4.90909H14ZM15 8H14.1667V10H15V8ZM15.1667 9V7.36364H13.1667V9H15.1667ZM14.1667 6.36364H0.833333V8.36364H14.1667V6.36364ZM-0.166667 7.36364V9H1.83333V7.36364H-0.166667ZM0.833333 8H0V10H0.833333V8ZM7.91667 4.27273H13.3333V2.27273H7.91667V4.27273ZM14.3333 3.27273V1.63636H12.3333V3.27273H14.3333ZM14.3333 1.63636C14.3333 1.14629 14.1525 0.691088 13.7927 0.339037L12.394 1.7686C12.3835 1.75835 12.3637 1.73422 12.3487 1.69779C12.3418 1.68106 12.3377 1.666 12.3355 1.65412C12.3333 1.64246 12.3333 1.63607 12.3333 1.63636H14.3333ZM13.7927 0.339037C13.4359 -0.0100801 12.9834 -0.180701 12.5023 -0.181816L12.4977 1.81818C12.5033 1.81819 12.4856 1.81869 12.4559 1.80689C12.4252 1.79471 12.4038 1.77816 12.394 1.7686L13.7927 0.339037ZM12.5 -0.181818H8.75V1.81818H12.5V-0.181818ZM8.75 -0.181818C8.26723 -0.181818 7.81245 -0.0108655 7.45484 0.341474L8.8585 1.76616C8.84796 1.77654 8.82549 1.79385 8.79368 1.80648C8.7629 1.81871 8.7445 1.81818 8.75 1.81818V-0.181818ZM7.45484 0.341474C7.09826 0.692786 6.91784 1.14566 6.91667 1.63396L8.91666 1.63877C8.91666 1.63841 8.91666 1.64459 8.91452 1.6559C8.91234 1.66742 8.90836 1.682 8.90169 1.6982C8.88716 1.73347 8.86817 1.75663 8.8585 1.76616L7.45484 0.341474ZM6.91667 1.63636V3.27273H8.91667V1.63636H6.91667ZM1.66667 4.27273H7.08333V2.27273H1.66667V4.27273ZM8.08333 3.27273V1.63636H6.08333V3.27273H8.08333ZM8.08333 1.63636C8.08333 1.14629 7.9025 0.691088 7.54268 0.339037L6.14398 1.7686C6.13351 1.75835 6.11374 1.73422 6.09873 1.69779C6.09183 1.68106 6.08774 1.666 6.08551 1.65412C6.08332 1.64246 6.08333 1.63607 6.08333 1.63636H8.08333ZM7.54268 0.339037C7.18586 -0.0100801 6.7334 -0.180701 6.25232 -0.181816L6.24768 1.81818C6.25328 1.81819 6.23561 1.81869 6.2059 1.80689C6.17523 1.79471 6.15375 1.77816 6.14398 1.7686L7.54268 0.339037ZM6.25 -0.181818H2.5V1.81818H6.25V-0.181818ZM2.5 -0.181818C2.01723 -0.181818 1.56245 -0.0108655 1.20484 0.341474L2.6085 1.76616C2.59796 1.77654 2.57549 1.79385 2.54368 1.80648C2.5129 1.81871 2.4945 1.81818 2.5 1.81818V-0.181818ZM1.20484 0.341474C0.848261 0.692786 0.667843 1.14566 0.666669 1.63396L2.66666 1.63877C2.66666 1.63841 2.66666 1.64459 2.66452 1.6559C2.66234 1.66742 2.65836 1.682 2.65169 1.6982C2.63716 1.73347 2.61817 1.75663 2.6085 1.76616L1.20484 0.341474ZM0.666667 1.63636V3.27273H2.66667V1.63636H0.666667ZM0.833333 7.54545H14.1667V5.54545H0.833333V7.54545ZM15.1667 6.54545V4.90909H13.1667V6.54545H15.1667ZM15.1667 4.90909C15.1667 4.41901 14.9858 3.96382 14.626 3.61176L13.2273 5.04133C13.2168 5.03108 13.1971 5.00695 13.1821 4.97051C13.1752 4.95378 13.1711 4.93872 13.1688 4.92685C13.1667 4.91519 13.1667 4.90879 13.1667 4.90909H15.1667ZM14.626 3.61176C14.2692 3.26265 13.8167 3.09203 13.3356 3.09091L13.331 5.09091C13.3366 5.09092 13.3189 5.09142 13.2892 5.07962C13.2586 5.06744 13.2371 5.05088 13.2273 5.04133L14.626 3.61176ZM13.3333 3.09091H1.66667V5.09091H13.3333V3.09091ZM1.66667 3.09091C1.18389 3.09091 0.729121 3.26186 0.371504 3.6142L1.77516 5.03889C1.76463 5.04927 1.74216 5.06658 1.71035 5.07921C1.67957 5.09143 1.66117 5.09091 1.66667 5.09091V3.09091ZM0.371504 3.6142C0.0149276 3.96551 -0.165491 4.41839 -0.166664 4.90669L1.83333 4.91149C1.83333 4.91114 1.83333 4.91731 1.83119 4.92863C1.82901 4.94014 1.82503 4.95473 1.81836 4.97092C1.80383 5.0062 1.78484 5.02936 1.77516 5.03889L0.371504 3.6142ZM-0.166667 4.90909V6.54545H1.83333V4.90909H-0.166667Z" fill="#919191" mask="url(#path-1-inside-1_30_2412)"/>
</svg>
