<svg width="20" height="20" viewBox="0 0 20 20" fill="none" xmlns="http://www.w3.org/2000/svg">
<path d="M3.7448 10.2852C3.74563 9.53411 4.04435 8.81401 4.57542 8.28288C5.10649 7.75174 5.82656 7.45294 6.57765 7.45202H7.43363C7.97269 7.45201 8.50056 7.60586 8.9552 7.89551C9.40984 8.18516 9.77236 8.59856 10.0002 9.08713C10.228 8.59855 10.5905 8.18515 11.0452 7.8955C11.4999 7.60586 12.0278 7.45201 12.5668 7.45202H13.4224C14.1736 7.45285 14.8937 7.75162 15.4249 8.28276C15.956 8.8139 16.2548 9.53405 16.2556 10.2852C16.2562 10.4933 16.1983 10.6975 16.0885 10.8743H17.1486V2.30012C17.1484 2.14396 17.0863 1.99424 16.9759 1.88381C16.8655 1.77339 16.7158 1.71128 16.5596 1.71113H3.44105C3.28488 1.71128 3.13516 1.77339 3.02473 1.88381C2.91431 1.99424 2.8522 2.14396 2.85205 2.30012V10.8743H3.91213C3.80224 10.6975 3.74426 10.4934 3.7448 10.2852ZM10.003 2.31872H15.1335C15.2042 2.31872 15.272 2.3468 15.322 2.39679C15.372 2.44678 15.4001 2.51459 15.4001 2.58529C15.4001 2.65598 15.372 2.72379 15.322 2.77378C15.272 2.82377 15.2042 2.85185 15.1335 2.85185H10.003C9.93227 2.85185 9.86446 2.82377 9.81447 2.77378C9.76448 2.72379 9.7364 2.65598 9.7364 2.58529C9.7364 2.51459 9.76448 2.44678 9.81447 2.39679C9.86446 2.3468 9.93227 2.31872 10.003 2.31872ZM6.57798 2.31872H8.86224C8.93294 2.31872 9.00074 2.3468 9.05073 2.39679C9.10072 2.44678 9.12881 2.51459 9.12881 2.58529C9.12881 2.65598 9.10072 2.72379 9.05073 2.77378C9.00074 2.82377 8.93294 2.85185 8.86224 2.85185H6.57765C6.50695 2.85185 6.43915 2.82377 6.38916 2.77378C6.33916 2.72379 6.31108 2.65598 6.31108 2.58529C6.31108 2.51459 6.33916 2.44678 6.38916 2.39679C6.43915 2.3468 6.50695 2.31872 6.57765 2.31872H6.57798Z" fill="#D3A45C"/>
<path d="M2.31862 0.588996C2.31862 0.511648 2.30338 0.435057 2.27378 0.363597C2.24418 0.292137 2.2008 0.227206 2.1461 0.172513C2.09141 0.11782 2.02648 0.0744345 1.95502 0.0448347C1.88356 0.0152348 1.80697 0 1.72962 0C1.65227 0 1.57568 0.0152348 1.50422 0.0448347C1.43276 0.0744345 1.36783 0.11782 1.31314 0.172513C1.25844 0.227206 1.21506 0.292137 1.18546 0.363597C1.15586 0.435057 1.14062 0.511648 1.14062 0.588996V10.8743H2.31862V0.588996Z" fill="#D3A45C"/>
<path d="M18.8591 0.588996C18.8591 0.432785 18.7971 0.282971 18.6866 0.172513C18.5762 0.0620548 18.4264 0 18.2701 0C18.1139 0 17.9641 0.0620548 17.8537 0.172513C17.7432 0.282971 17.6812 0.432785 17.6812 0.588996V10.8743H18.8591V0.588996Z" fill="#D3A45C"/>
<path d="M1.71094 14.8294H18.2888V17.7186H1.71094V14.8294Z" fill="#D3A45C"/>
<path d="M19.6962 14.8294H18.822V19.9814C18.8221 19.9863 18.8241 19.991 18.8275 19.9945C18.831 19.998 18.8357 19.9999 18.8406 20H19.9814C19.9863 19.9999 19.991 19.998 19.9945 19.9945C19.998 19.991 19.9999 19.9863 20 19.9814V15.1333C19.9999 15.0528 19.9679 14.9755 19.911 14.9185C19.854 14.8616 19.7767 14.8295 19.6962 14.8294Z" fill="#D3A45C"/>
<path d="M0.0186747 20H1.1594C1.16432 19.9999 1.16902 19.998 1.17251 19.9945C1.17599 19.991 1.17799 19.9863 1.17807 19.9814V14.8294H0.303835C0.223266 14.8295 0.146022 14.8616 0.0890588 14.9185C0.0320952 14.9755 6.56164e-05 15.0528 0 15.1333L0 19.9814C6.46237e-05 19.9863 0.00205546 19.991 0.00554604 19.9945C0.00903662 19.998 0.0137493 20 0.0186747 20Z" fill="#D3A45C"/>
<path d="M19.4296 11.7112C19.4295 11.6306 19.3975 11.5533 19.3405 11.4964C19.2836 11.4394 19.2063 11.4073 19.1258 11.4072H0.874152C0.793546 11.4073 0.716251 11.4393 0.659239 11.4963C0.602227 11.5533 0.570156 11.6306 0.570068 11.7112V14.2964H19.4296V11.7112ZM5.72502 13.6887H2.30004C2.26464 13.6893 2.22948 13.6829 2.19659 13.6698C2.16371 13.6567 2.13377 13.6371 2.10852 13.6123C2.08327 13.5875 2.06321 13.5579 2.04952 13.5253C2.03583 13.4926 2.02878 13.4576 2.02878 13.4222C2.02878 13.3868 2.03583 13.3517 2.04952 13.3191C2.06321 13.2864 2.08327 13.2568 2.10852 13.232C2.13377 13.2072 2.16371 13.1877 2.19659 13.1746C2.22948 13.1615 2.26464 13.155 2.30004 13.1556H5.72502C5.7949 13.1569 5.86149 13.1855 5.91047 13.2353C5.95945 13.2852 5.9869 13.3523 5.9869 13.4222C5.9869 13.4921 5.95945 13.5591 5.91047 13.609C5.86149 13.6588 5.7949 13.6875 5.72502 13.6887ZM14.2774 13.6887H6.86575C6.83035 13.6893 6.79519 13.6829 6.7623 13.6698C6.72942 13.6567 6.69948 13.6371 6.67423 13.6123C6.64898 13.5875 6.62892 13.5579 6.61523 13.5253C6.60154 13.4926 6.59449 13.4576 6.59449 13.4222C6.59449 13.3868 6.60154 13.3517 6.61523 13.3191C6.62892 13.2864 6.64898 13.2568 6.67423 13.232C6.69948 13.2072 6.72942 13.1877 6.7623 13.1746C6.79519 13.1615 6.83035 13.155 6.86575 13.1556H14.2778C14.3132 13.155 14.3483 13.1615 14.3812 13.1746C14.4141 13.1877 14.444 13.2072 14.4693 13.232C14.4945 13.2568 14.5146 13.2864 14.5283 13.3191C14.542 13.3517 14.549 13.3868 14.549 13.4222C14.549 13.4576 14.542 13.4926 14.5283 13.5253C14.5146 13.5579 14.4945 13.5875 14.4693 13.6123C14.444 13.6371 14.4141 13.6567 14.3812 13.6698C14.3483 13.6829 14.3132 13.6893 14.2778 13.6887H14.2774Z" fill="#D3A45C"/>
<path d="M13.4223 7.98516H12.5667C11.9569 7.98582 11.3723 8.22835 10.941 8.65955C10.5098 9.09074 10.2673 9.67539 10.2666 10.2852V10.8743H15.1336C15.2897 10.8741 15.4394 10.812 15.5498 10.7015C15.6602 10.5911 15.7223 10.4414 15.7225 10.2853C15.7218 9.67544 15.4793 9.09076 15.0481 8.65955C14.6168 8.22833 14.0321 7.9858 13.4223 7.98516Z" fill="#D3A45C"/>
<path d="M9.73341 10.8743V10.2853C9.73275 9.67547 9.49022 9.09082 9.05902 8.65961C8.62782 8.22839 8.04318 7.98584 7.43336 7.98516H6.57739C5.96759 7.98584 5.38295 8.22838 4.95176 8.65958C4.52056 9.09077 4.27802 9.6754 4.27734 10.2852C4.27752 10.4415 4.33971 10.5913 4.45025 10.7017C4.56079 10.8122 4.71065 10.8742 4.86692 10.8743H9.73341Z" fill="#D3A45C"/>
</svg>
