<svg width="19" height="19" viewBox="0 0 19 19" fill="none" xmlns="http://www.w3.org/2000/svg">
<path d="M3.99998 5.00013H2.99999C2.46956 5.00013 1.96085 5.21084 1.58578 5.58591C1.21071 5.96098 1 6.46969 1 7.00012V16.0001C1 16.5305 1.21071 17.0392 1.58578 17.4143C1.96085 17.7893 2.46956 18 2.99999 18H11.9999C12.5304 18 13.0391 17.7893 13.4141 17.4143C13.7892 17.0392 13.9999 16.5305 13.9999 16.0001V15.0001" stroke="#D3A45C" stroke-width="2" stroke-linecap="round" stroke-linejoin="round"/>
<path d="M13 3.00014L15.9999 6.00013M17.3849 4.58513C17.7788 4.19129 18 3.65712 18 3.10014C18 2.54316 17.7788 2.009 17.3849 1.61515C16.9911 1.22131 16.4569 1.00005 15.8999 1.00005C15.343 1.00005 14.8088 1.22131 14.4149 1.61515L6 10.0001V13.0001H8.99998L17.3849 4.58513Z" stroke="#D3A45C" stroke-width="2" stroke-linecap="round" stroke-linejoin="round"/>
</svg>
