<svg width="19" height="19" viewBox="0 0 19 19" fill="none" xmlns="http://www.w3.org/2000/svg">
<path d="M13.669 0.211155C13.836 0.226155 13.909 0.430155 13.789 0.549155L5.46901 8.86915C5.37503 8.9632 5.30773 9.08054 5.27401 9.20916L4.27401 13.0392C4.241 13.1657 4.24167 13.2987 4.27594 13.425C4.31022 13.5512 4.37691 13.6663 4.46941 13.7588C4.5619 13.8513 4.67697 13.9179 4.80321 13.9522C4.92944 13.9865 5.06244 13.9872 5.18901 13.9542L9.01801 12.9542C9.14673 12.9202 9.26408 12.8525 9.35801 12.7582L17.796 4.32015C17.8224 4.29305 17.856 4.27408 17.8929 4.26549C17.9297 4.25689 17.9683 4.25903 18.0039 4.27166C18.0396 4.28429 18.0709 4.30686 18.0941 4.33673C18.1174 4.36659 18.1315 4.40248 18.135 4.44015C18.4863 7.78977 18.4661 11.168 18.075 14.5132C17.852 16.4182 16.321 17.9132 14.423 18.1262C10.9466 18.5113 7.43838 18.5113 3.96201 18.1262C2.06301 17.9132 0.532013 16.4182 0.309013 14.5132C-0.103004 10.9882 -0.103004 7.42716 0.309013 3.90216C0.532013 1.99616 2.06301 0.501155 3.96201 0.289155C7.18653 -0.0682721 10.4392 -0.0944086 13.669 0.211155Z" fill="white"/>
<path d="M15.015 1.44414C15.0382 1.42086 15.0658 1.40239 15.0962 1.38979C15.1266 1.37718 15.1591 1.3707 15.192 1.3707C15.2249 1.3707 15.2575 1.37718 15.2878 1.38979C15.3182 1.40239 15.3458 1.42086 15.369 1.44414L16.783 2.85914C16.8297 2.90601 16.856 2.96947 16.856 3.03564C16.856 3.10181 16.8297 3.16528 16.783 3.21214L8.49002 11.5071C8.45848 11.5386 8.41913 11.561 8.37602 11.5721L6.46202 12.0721C6.41983 12.0831 6.37549 12.0829 6.33342 12.0715C6.29134 12.0601 6.25298 12.0378 6.22215 12.007C6.19132 11.9762 6.16909 11.9378 6.15766 11.8957C6.14624 11.8537 6.14601 11.8093 6.15702 11.7671L6.65702 9.85314C6.66815 9.81003 6.69059 9.77068 6.72202 9.73914L15.015 1.44414Z" fill="white"/>
</svg>
