<svg width="20" height="17" viewBox="0 0 20 17" fill="none" xmlns="http://www.w3.org/2000/svg">
<path fill-rule="evenodd" clip-rule="evenodd" d="M3 16.5C2.20435 16.5 1.44129 16.1839 0.87868 15.6213C0.316071 15.0587 0 14.2956 0 13.5V3.5C0 2.70435 0.316071 1.94129 0.87868 1.37868C1.44129 0.816071 2.20435 0.5 3 0.5H17C17.7956 0.5 18.5587 0.816071 19.1213 1.37868C19.6839 1.94129 20 2.70435 20 3.5V13.5C20 14.2956 19.6839 15.0587 19.1213 15.6213C18.5587 16.1839 17.7956 16.5 17 16.5H3ZM5.625 4.72C5.52313 4.63302 5.40483 4.56739 5.27711 4.527C5.1494 4.48662 5.01487 4.47231 4.88151 4.48491C4.74816 4.49752 4.61869 4.53679 4.50081 4.6004C4.38292 4.664 4.27901 4.75064 4.19525 4.85517C4.11149 4.9597 4.04959 5.08 4.01321 5.20891C3.97684 5.33783 3.96673 5.47274 3.9835 5.60564C4.00026 5.73853 4.04356 5.86671 4.11081 5.98255C4.17806 6.09839 4.2679 6.19954 4.375 6.28L8.125 9.281C8.65709 9.70701 9.31838 9.93913 10 9.93913C10.6816 9.93913 11.3429 9.70701 11.875 9.281L15.625 6.281C15.7276 6.19892 15.813 6.09745 15.8763 5.98237C15.9396 5.8673 15.9797 5.74087 15.9942 5.61031C16.0087 5.47975 15.9973 5.34762 15.9607 5.22145C15.9241 5.09529 15.8631 4.97756 15.781 4.875C15.6989 4.77244 15.5974 4.68705 15.4824 4.6237C15.3673 4.56035 15.2409 4.52029 15.1103 4.50581C14.9798 4.49132 14.8476 4.50269 14.7215 4.53927C14.5953 4.57585 14.4776 4.63692 14.375 4.719L10.625 7.719C10.4476 7.861 10.2272 7.93838 10 7.93838C9.77279 7.93838 9.55236 7.861 9.375 7.719L5.625 4.72Z" fill="#D3A45C"/>
</svg>
