<svg width="18" height="14" viewBox="0 0 18 14" fill="none" xmlns="http://www.w3.org/2000/svg">
<path d="M6.35294 13C6.35294 13.5523 6.80066 14 7.35294 14H10.6471C11.1993 14 11.6471 13.5523 11.6471 13V8.53846C11.6471 7.98618 11.1993 7.53846 10.6471 7.53846H7.35294C6.80066 7.53846 6.35294 7.98618 6.35294 8.53846V13ZM0 13C0 13.5523 0.447715 14 1 14H4.29412C4.8464 14 5.29412 13.5523 5.29412 13V1C5.29412 0.447716 4.8464 0 4.29412 0H1C0.447716 0 0 0.447715 0 1V13ZM12.7059 13C12.7059 13.5523 13.1536 14 13.7059 14H17C17.5523 14 18 13.5523 18 13V8.53846C18 7.98618 17.5523 7.53846 17 7.53846H13.7059C13.1536 7.53846 12.7059 7.98618 12.7059 8.53846V13ZM7.35294 0C6.80066 0 6.35294 0.447715 6.35294 1V5.46154C6.35294 6.01382 6.80066 6.46154 7.35294 6.46154H17C17.5523 6.46154 18 6.01382 18 5.46154V1C18 0.447716 17.5523 0 17 0H7.35294Z" fill="#D3A45C"/>
</svg>
