<svg width="15" height="14" viewBox="0 0 15 14" fill="none" xmlns="http://www.w3.org/2000/svg">
<path d="M14.2105 7.77778H0.789474C0.355263 7.77778 0 8.12778 0 8.55556V13.2222C0 13.65 0.355263 14 0.789474 14H14.2105C14.6447 14 15 13.65 15 13.2222V8.55556C15 8.12778 14.6447 7.77778 14.2105 7.77778ZM14.2105 0H0.789474C0.355263 0 0 0.35 0 0.777778V5.44444C0 5.87222 0.355263 6.22222 0.789474 6.22222H14.2105C14.6447 6.22222 15 5.87222 15 5.44444V0.777778C15 0.35 14.6447 0 14.2105 0Z" fill="white"/>
</svg>
