<svg width="21" height="24" viewBox="0 0 21 24" fill="none" xmlns="http://www.w3.org/2000/svg">
<path d="M16.6569 11.5118L9.05111 4.63516C8.97255 4.56355 8.87908 4.5067 8.7761 4.46791C8.67312 4.42912 8.56266 4.40915 8.4511 4.40915C8.33954 4.40915 8.22908 4.42912 8.1261 4.46791C8.02312 4.5067 7.92965 4.56355 7.85109 4.63516L0.245333 11.5118C0.167009 11.5832 0.105043 11.6679 0.0629878 11.761C0.0209325 11.8541 -0.000384753 11.9538 0.000258266 12.0543V22.7514C0.000258266 22.954 0.0892939 23.1484 0.247778 23.2916C0.406262 23.4349 0.621212 23.5154 0.845343 23.5154H5.91585C6.13998 23.5154 6.35493 23.4349 6.51341 23.2916C6.6719 23.1484 6.76093 22.954 6.76093 22.7514V17.4028H10.1413V22.7514C10.1413 22.954 10.2303 23.1484 10.3888 23.2916C10.5473 23.4349 10.7622 23.5154 10.9864 23.5154H16.0569C16.281 23.5154 16.4959 23.4349 16.6544 23.2916C16.8129 23.1484 16.9019 22.954 16.9019 22.7514V12.0543C16.9026 11.9538 16.8813 11.8541 16.8392 11.761C16.7972 11.6679 16.7352 11.5832 16.6569 11.5118Z" fill="#D3A45C"/>
<path d="M19.5411 1.74253C19.0792 0.942211 18.3183 0.358159 17.4257 0.118863C16.5332 -0.120433 15.5822 0.00462887 14.7818 0.466537C13.9815 0.928444 13.3975 1.68936 13.1582 2.58189C12.9189 3.47442 13.0439 4.42546 13.5058 5.22578L15.7444 9.10303C15.8225 9.24083 15.9358 9.35546 16.0726 9.4352C16.2095 9.51495 16.3651 9.55697 16.5235 9.55697C16.6819 9.55697 16.8374 9.51495 16.9743 9.4352C17.1111 9.35546 17.2244 9.24083 17.3025 9.10303L19.5411 5.22578C19.8486 4.69686 20.0105 4.09596 20.0105 3.48416C20.0105 2.87236 19.8486 2.27146 19.5411 1.74253ZM16.5235 4.38407C16.3464 4.38407 16.1732 4.33156 16.026 4.23316C15.8787 4.13477 15.764 3.99493 15.6962 3.83131C15.6284 3.66769 15.6107 3.48764 15.6452 3.31395C15.6798 3.14025 15.7651 2.9807 15.8903 2.85547C16.0155 2.73024 16.1751 2.64496 16.3488 2.61041C16.5225 2.57585 16.7025 2.59359 16.8661 2.66136C17.0298 2.72913 17.1696 2.8439 17.268 2.99116C17.3664 3.13841 17.4189 3.31154 17.4189 3.48864C17.4189 3.72612 17.3246 3.95388 17.1566 4.12181C16.9887 4.28973 16.761 4.38407 16.5235 4.38407Z" fill="#D3A45C"/>
</svg>
