<svg width="23" height="22" viewBox="0 0 23 22" fill="none" xmlns="http://www.w3.org/2000/svg">
<path d="M11.5 0C11.7652 0 12.0196 0.105357 12.2071 0.292893C12.3946 0.48043 12.5 0.734784 12.5 1V2.055C14.529 2.2822 16.4206 3.19226 17.8644 4.63589C19.3082 6.07951 20.2185 7.97098 20.446 10H21.5C21.7652 10 22.0196 10.1054 22.2071 10.2929C22.3946 10.4804 22.5 10.7348 22.5 11C22.5 11.2652 22.3946 11.5196 22.2071 11.7071C22.0196 11.8946 21.7652 12 21.5 12H20.445C20.2176 14.0287 19.3076 15.9199 17.8642 17.3635C16.4208 18.8071 14.5297 19.7174 12.501 19.945L12.5 21C12.5 21.2652 12.3946 21.5196 12.2071 21.7071C12.0196 21.8946 11.7652 22 11.5 22C11.2348 22 10.9804 21.8946 10.7929 21.7071C10.6054 21.5196 10.5 21.2652 10.5 21V19.945C8.47129 19.7176 6.58005 18.8076 5.13646 17.3642C3.69287 15.9208 2.78262 14.0297 2.555 12.001L1.5 12C1.23478 12 0.98043 11.8946 0.792893 11.7071C0.605357 11.5196 0.5 11.2652 0.5 11C0.5 10.7348 0.605357 10.4804 0.792893 10.2929C0.98043 10.1054 1.23478 10 1.5 10H2.555C2.78241 7.97114 3.69257 6.07978 5.13618 4.63618C6.57978 3.19257 8.47114 2.28241 10.5 2.055V1C10.5 0.734784 10.6054 0.48043 10.7929 0.292893C10.9804 0.105357 11.2348 0 11.5 0ZM11.5 4C10.5807 4 9.6705 4.18106 8.82122 4.53284C7.97194 4.88463 7.20026 5.40024 6.55025 6.05025C5.90024 6.70026 5.38463 7.47194 5.03284 8.32122C4.68106 9.1705 4.5 10.0807 4.5 11C4.5 11.9193 4.68106 12.8295 5.03284 13.6788C5.38463 14.5281 5.90024 15.2997 6.55025 15.9497C7.20026 16.5998 7.97194 17.1154 8.82122 17.4672C9.6705 17.8189 10.5807 18 11.5 18C13.3565 18 15.137 17.2625 16.4497 15.9497C17.7625 14.637 18.5 12.8565 18.5 11C18.5 9.14348 17.7625 7.36301 16.4497 6.05025C15.137 4.7375 13.3565 4 11.5 4ZM11.5 7C12.2911 7 13.0645 7.2346 13.7223 7.67412C14.3801 8.11365 14.8928 8.73836 15.1955 9.46927C15.4983 10.2002 15.5775 11.0044 15.4231 11.7804C15.2688 12.5563 14.8878 13.269 14.3284 13.8284C13.769 14.3878 13.0563 14.7688 12.2804 14.9231C11.5044 15.0775 10.7002 14.9983 9.96927 14.6955C9.23836 14.3928 8.61365 13.8801 8.17412 13.2223C7.7346 12.5645 7.5 11.7911 7.5 11L7.505 10.8C7.55631 9.77504 7.9996 8.80901 8.74319 8.10172C9.48677 7.39443 10.4738 7 11.5 7Z" fill="#EFD397"/>
</svg>
