<svg width="20" height="20" viewBox="0 0 20 20" fill="none" xmlns="http://www.w3.org/2000/svg">
<path d="M16.7394 15.9496L17.7568 16.9671H3.04328V14.2839H4.47504V13.112H3.04328V11.9402H4.47504V10.7683H3.04328V9.59641H4.47504V8.42453H3.04328V7.25266H4.47504V6.08078H3.04328V2.26855L4.03539 3.26066L4.86402 2.43203L2.43199 0L0 2.43203L0.828633 3.26066L1.87141 2.21789V16.9671H0V18.1389H1.87141V20H3.04328V18.1389H17.7568L16.7394 19.1564L17.568 19.985L20 17.553L17.568 15.121L16.7394 15.9496Z" fill="#D3A45C"/>
<path d="M12.0457 0H13.9759V3.64523H12.0457V0Z" fill="#D3A45C"/>
<path d="M16.6327 10.3729V9.20098H20V0H15.1479V4.81711H10.8739V0H5.78198V14.218H20V12.7166H16.6327V11.5447H20V10.3729H16.6327Z" fill="#D3A45C"/>
</svg>
