<svg width="46" height="46" viewBox="0 0 46 46" fill="none" xmlns="http://www.w3.org/2000/svg">
<g clip-path="url(#clip0_26_19)">
<path d="M36.4872 33.3967L29.6699 26.5865C34.6221 20.1142 34.1585 10.8243 28.236 4.90183C21.7888 -1.54176 11.3382 -1.54176 4.88738 4.90183C-1.55621 11.349 -1.55621 21.8032 4.88738 28.2468C10.8099 34.1657 20.1033 34.6365 26.5757 29.6807L33.393 36.4945L36.4872 33.3967Z" fill="#78A3AD"/>
<path d="M7.34574 25.7923C2.25699 20.7 2.25699 12.4415 7.34574 7.35279C12.4381 2.26045 20.6857 2.26404 25.7817 7.35279C30.8704 12.4415 30.8704 20.6928 25.7817 25.7923C20.6821 30.8811 12.4345 30.8811 7.34574 25.7923Z" fill="#60636A"/>
<path d="M45.4719 39.7217L36.2971 30.5253C33.9611 28.1894 28.3261 34.0364 30.5578 36.2645L39.7327 45.4609C40.6814 46.4061 42.7371 45.8886 44.3147 44.3002C45.8996 42.7189 46.4171 40.6669 45.4719 39.7217Z" fill="#F79329"/>
<mask id="mask0_26_19" style="mask-type:luminance" maskUnits="userSpaceOnUse" x="30" y="29" width="16" height="17">
<path d="M45.4719 39.7217L36.2971 30.5253C33.9611 28.1894 28.3261 34.0364 30.5578 36.2645L39.7327 45.4609C40.6814 46.4061 42.7371 45.8886 44.3147 44.3002C45.8996 42.7189 46.4171 40.6669 45.4719 39.7217Z" fill="white"/>
</mask>
<g mask="url(#mask0_26_19)">
<path d="M39.9734 45.1986C40.0381 44.4655 40.516 43.5994 40.8251 43.1106C41.7487 41.648 42.9095 40.4369 44.6417 39.9769C46.4026 39.5061 46.5787 40.8322 46.1582 42.1762C45.6515 43.797 44.6417 45.0153 43.1539 45.867C42.8053 46.0683 42.3417 46.3522 41.9392 46.4133C40.9545 46.5534 39.8692 46.4277 39.9734 45.1986Z" fill="#855C52"/>
</g>
</g>
<defs>
<clipPath id="clip0_26_19">
<rect width="46" height="46" fill="white"/>
</clipPath>
</defs>
</svg>
