<svg width="16" height="17" viewBox="0 0 16 17" fill="none" xmlns="http://www.w3.org/2000/svg">
<path fill-rule="evenodd" clip-rule="evenodd" d="M5.90422 2.69369C6.34838 2.24953 6.9508 2 7.57895 2C8.20709 2 8.80951 2.24953 9.25367 2.69369C9.69784 3.13786 9.94737 3.74028 9.94737 4.36842V6.05263H5.21053V4.36842C5.21053 3.74028 5.46005 3.13786 5.90422 2.69369ZM3.21053 6.05263V4.36842C3.21053 3.20984 3.67077 2.09872 4.49001 1.27948C5.30924 0.460243 6.42037 0 7.57895 0C8.73752 0 9.84865 0.460243 10.6679 1.27948C11.4871 2.09872 11.9474 3.20984 11.9474 4.36842V6.05263H12.6316C13.3016 6.05263 13.9442 6.3188 14.418 6.79257C14.8917 7.26635 15.1579 7.90893 15.1579 8.57895V14.4737C15.1579 15.1437 14.8917 15.7863 14.418 16.2601C13.9442 16.7338 13.3016 17 12.6316 17H2.52632C1.8563 17 1.21372 16.7338 0.739941 16.2601C0.266165 15.7863 0 15.1437 0 14.4737V8.57895C0 7.90893 0.266165 7.26635 0.739941 6.79257C1.21372 6.3188 1.8563 6.05263 2.52632 6.05263H3.21053ZM8.17441 9.6677C8.33233 9.82562 8.42105 10.0398 8.42105 10.2632V12.7895C8.42105 13.0128 8.33233 13.227 8.17441 13.3849C8.01648 13.5429 7.80229 13.6316 7.57895 13.6316C7.35561 13.6316 7.14141 13.5429 6.98349 13.3849C6.82556 13.227 6.73684 13.0128 6.73684 12.7895V10.2632C6.73684 10.0398 6.82556 9.82562 6.98349 9.6677C7.14141 9.50977 7.35561 9.42105 7.57895 9.42105C7.80229 9.42105 8.01648 9.50977 8.17441 9.6677Z" fill="#D3A45C"/>
</svg>
