<svg width="30" height="22" viewBox="0 0 30 22" fill="none" xmlns="http://www.w3.org/2000/svg">
<path d="M4.58333 0C3.36776 0 2.20197 0.482886 1.34243 1.34243C0.482886 2.20197 0 3.36776 0 4.58333V6.96667H29.3333V4.58333C29.3333 3.36776 28.8504 2.20197 27.9909 1.34243C27.1314 0.482886 25.9656 0 24.75 0H4.58333ZM0 17.4167V8.8H29.3333V17.4167C29.3333 18.6322 28.8504 19.798 27.9909 20.6576C27.1314 21.5171 25.9656 22 24.75 22H4.58333C3.36776 22 2.20197 21.5171 1.34243 20.6576C0.482886 19.798 0 18.6322 0 17.4167ZM19.9833 15.0333C19.7402 15.0333 19.5071 15.1299 19.3352 15.3018C19.1632 15.4737 19.0667 15.7069 19.0667 15.95C19.0667 16.1931 19.1632 16.4263 19.3352 16.5982C19.5071 16.7701 19.7402 16.8667 19.9833 16.8667H24.0167C24.2598 16.8667 24.4929 16.7701 24.6648 16.5982C24.8368 16.4263 24.9333 16.1931 24.9333 15.95C24.9333 15.7069 24.8368 15.4737 24.6648 15.3018C24.4929 15.1299 24.2598 15.0333 24.0167 15.0333H19.9833Z" fill="#D3A45C"/>
</svg>
