<svg width="18" height="18" viewBox="0 0 18 18" fill="none" xmlns="http://www.w3.org/2000/svg">
<path d="M17.999 13.42V16.956C17.9991 17.2092 17.9032 17.453 17.7306 17.6382C17.558 17.8234 17.3216 17.9363 17.0691 17.954C16.6321 17.984 16.2751 18 15.9991 18C7.1626 18 0 10.837 0 2C0 1.724 0.0149992 1.367 0.0459974 0.93C0.0637188 0.677444 0.176571 0.441011 0.361783 0.268409C0.546995 0.0958068 0.790779 -0.000114433 1.04394 2.56579e-07H4.57975C4.70378 -0.000125334 4.82343 0.045859 4.91546 0.12902C5.00748 0.212182 5.06531 0.326583 5.07772 0.45C5.10072 0.68 5.12172 0.863 5.14171 1.002C5.34044 2.38892 5.74768 3.73783 6.34965 5.003C6.44464 5.203 6.38265 5.442 6.20266 5.57L4.04478 7.112C5.36416 10.1865 7.81411 12.6365 10.8884 13.956L12.4283 11.802C12.4913 11.714 12.5831 11.6509 12.6878 11.6237C12.7925 11.5964 12.9034 11.6068 13.0013 11.653C14.2662 12.2539 15.6147 12.6602 17.0011 12.858C17.14 12.878 17.323 12.899 17.551 12.922C17.6743 12.9346 17.7884 12.9926 17.8714 13.0846C17.9543 13.1766 17.9992 13.2961 17.999 13.42Z" fill="#D3A45C"/>
</svg>
