<svg width="26" height="38" viewBox="0 0 26 38" fill="none" xmlns="http://www.w3.org/2000/svg">
<path fill-rule="evenodd" clip-rule="evenodd" d="M10.7027 31.9782C11.5007 32.1781 12.2845 32.4625 13.009 32.7254C13.9757 33.0763 14.8278 33.3857 15.35 33.3593C15.3635 33.3571 15.3776 33.3554 15.3918 33.3542C15.699 33.3275 15.9726 33.247 16.1981 33.1307C16.4158 33.0174 16.5851 32.8731 16.6895 32.7156C16.6987 32.7015 16.7081 32.6882 16.7183 32.6756C16.7247 32.665 16.7308 32.6544 16.7378 32.6444C16.7936 32.5598 16.825 32.4667 16.8271 32.3647C16.8304 32.2376 16.7954 32.0864 16.7183 31.9086C16.6061 31.7607 15.3116 31.2524 13.766 30.722C12.2708 30.2093 10.5944 29.7363 9.50169 29.5939C8.65826 29.5518 7.93857 29.6784 7.27544 29.9358C6.67646 30.1683 6.11037 30.5144 5.53357 30.9446L5.57927 36.3057C6.81732 36.9988 8.15912 37.4131 9.53599 37.5752C11.0936 37.7586 12.6949 37.6229 14.2425 37.2075C14.2576 37.2018 14.2734 37.1966 14.2897 37.1922C16.1183 36.6944 17.9064 35.9303 19.6395 34.9921C21.3758 34.0525 23.0575 32.9385 24.6708 31.7425C25.0654 31.3676 25.2209 30.9561 25.1921 30.6204C25.1815 30.4929 25.1422 30.3789 25.079 30.2884C25.0216 30.2055 24.9417 30.1404 24.8441 30.1011C24.5948 30.0012 24.2233 30.045 23.7515 30.3172C22.7072 30.9202 21.6765 31.5041 20.6528 32.0347C19.6567 32.5507 18.6475 33.0285 17.6051 33.4459C17.394 33.7312 17.0954 33.9818 16.7334 34.1698C16.376 34.3551 15.9538 34.4816 15.4926 34.5218C15.4722 34.5236 15.4522 34.5243 15.4326 34.5239C14.6655 34.57 13.7026 34.2207 12.6105 33.8242C11.9207 33.5736 11.174 33.3028 10.4186 33.1138C10.1051 33.0355 9.91451 32.7177 9.99255 32.4043C10.0714 32.0905 10.3891 31.9001 10.7027 31.9782Z" fill="#D3A45C"/>
<path fill-rule="evenodd" clip-rule="evenodd" d="M0.8125 28.8438H4.32812V37.8281H0.8125V28.8438Z" fill="#D3A45C"/>
<path d="M19.0938 0.171875H22.6094V9.15625H19.0938V0.171875Z" fill="#D3A45C"/>
<path d="M16.5156 23.6094H17.7656V27.125H16.5156V23.6094Z" fill="#D3A45C"/>
<path fill-rule="evenodd" clip-rule="evenodd" d="M20.3941 18.9813L17.1377 16.303L13.881 18.9795L10.6247 21.6559H13.3124V27.1246H15.3437V26.4996V23.0377C15.3437 22.7139 15.6335 22.4371 15.9569 22.4371H18.3184C18.6421 22.4371 18.9375 22.7139 18.9375 23.0377V26.4996V27.1246H20.9688V21.6559H23.6509L20.3941 18.9813Z" fill="#D3A45C"/>
<path d="M6.01269 13.5901C5.70792 13.6881 5.5223 13.7641 5.41238 13.7414C5.07355 13.6715 4.70066 13.1656 4.62105 13.0041C4.54121 12.842 4.45746 12.6395 4.44042 12.4867C4.39113 12.0438 4.51902 11.1634 5.05253 10.5608C4.91167 10.5966 4.77378 10.6401 4.64003 10.692C4.37285 10.7958 4.12238 10.9317 3.89089 11.0934C3.73785 11.2004 3.59378 11.319 3.45964 11.4481C3.36527 11.5389 3.27511 11.6339 3.19121 11.7346C2.67667 12.3523 2.3573 13.1465 2.3573 14.0133C2.3573 15.6491 3.46863 17.0263 4.953 17.4447V22.9141L6.05363 24.1269L7.06246 22.9141V17.3893C8.46871 16.9145 9.48996 15.583 9.48996 14.0132C9.48996 13.4494 9.35824 12.9167 9.12496 12.443C8.90011 12.5363 8.69332 12.6135 8.69332 12.6135C8.69332 12.6135 6.55808 13.4146 6.01269 13.5901Z" fill="#D3A45C"/>
<path d="M15.5853 1.51874C13.876 1.36749 12.3174 1.21655 11.4563 1.27553C10.1432 1.68921 8.9005 2.41757 7.65222 3.33038C6.21745 4.37905 4.91644 5.66788 3.77987 7.00389C3.38394 7.7121 3.30698 9.01131 3.36714 10.494C3.45581 10.4082 3.54753 10.3257 3.64331 10.2479C3.81073 10.1118 3.98855 9.98874 4.17573 9.87999C4.4587 9.71569 4.76097 9.5828 5.07972 9.48889C5.23808 9.44217 5.40042 9.40561 5.5655 9.37796L6.74191 8.56327L6.95956 8.4221C7.71605 7.93249 8.59011 7.36717 9.46058 6.66655C9.71183 6.46428 10.08 6.50421 10.2823 6.75592C10.4844 7.00749 10.4445 7.3753 10.193 7.57757C9.28151 8.311 8.37808 8.89569 7.59597 9.40186C6.9862 9.79632 6.45472 10.1403 6.07792 10.4543C5.95472 10.5569 5.848 10.6564 5.76058 10.7533C5.75097 10.764 5.74136 10.7738 5.73136 10.7835C5.52597 11.0176 5.37816 11.272 5.288 11.5238C5.19675 11.7785 5.16862 12.0206 5.20191 12.2244C5.22347 12.3552 5.28339 12.4886 5.3837 12.608C5.46019 12.6984 5.56058 12.7813 5.68542 12.8503C5.70198 12.8591 5.75058 12.8698 5.77347 12.8665C5.87831 12.8497 6.02175 12.8144 6.19628 12.7635C6.21534 12.7566 6.41456 12.6967 6.41456 12.6967C6.61198 12.6337 6.83745 12.555 7.08441 12.464C7.30433 12.3826 7.79175 12.1902 7.79175 12.1902L8.08066 12.0723C8.08066 12.0723 8.38589 11.9378 8.71292 11.7926C8.87589 11.7203 9.04417 11.6455 9.18292 11.5831L9.928 11.2489L9.9655 11.2312C11.1853 10.6498 12.366 10.0126 13.1144 9.48007C13.5742 9.09468 13.9371 8.69046 14.2261 8.26249C14.5158 7.83405 14.7331 7.37725 14.9021 6.88819C14.9785 6.66428 15.1775 6.51717 15.3985 6.49522C15.6892 6.43921 15.8004 6.47077 16.2903 6.55686C16.6542 6.62092 16.75 6.71616 17.2969 6.82381V1.6871C16.5939 1.63874 16.2631 1.57858 15.5853 1.51874Z" fill="#D3A45C"/>
</svg>
