<svg width="28" height="28" viewBox="0 0 28 28" fill="none" xmlns="http://www.w3.org/2000/svg">
<path d="M12.5546 25.3741C12.5461 25.2783 12.5416 25.1814 12.5416 25.0834V17.5242C12.5416 16.4772 13.0524 15.4962 13.9101 14.8958L14.0197 14.8191C9.94164 14.525 5.80046 15.3656 2.08341 17.3408C1.45179 17.6764 1.05701 18.3333 1.05701 19.0485V23.3324C1.05701 24.46 1.97109 25.3741 3.09867 25.3741H12.5546Z" fill="#D3A45C"/>
<path fill-rule="evenodd" clip-rule="evenodd" d="M12.432 0.874268C9.04926 0.874268 6.30701 3.61652 6.30701 6.99927C6.30701 10.382 9.04926 13.1243 12.432 13.1243C15.8147 13.1243 18.557 10.382 18.557 6.99927C18.557 3.61652 15.8147 0.874268 12.432 0.874268Z" fill="#D3A45C"/>
<path fill-rule="evenodd" clip-rule="evenodd" d="M20.5839 14.0188C20.4835 13.9484 20.3498 13.9484 20.2493 14.0188L15.5827 17.2854C15.5047 17.34 15.4583 17.4292 15.4583 17.5244V25.0836C15.4583 25.2447 15.5889 25.3752 15.75 25.3752H25.0833C25.2444 25.3752 25.375 25.2447 25.375 25.0836V17.5244C25.375 17.4292 25.3285 17.34 25.2506 17.2854L20.5839 14.0188ZM19.2458 12.5851C19.9488 12.0931 20.8845 12.0931 21.5875 12.5851L26.2542 15.8517C26.7999 16.2338 27.125 16.8582 27.125 17.5244V25.0836C27.125 26.2111 26.2109 27.1252 25.0833 27.1252H15.75C14.6224 27.1252 13.7083 26.2111 13.7083 25.0836V17.5244C13.7083 16.8582 14.0333 16.2338 14.5791 15.8517L19.2458 12.5851Z" fill="#D3A45C"/>
<path fill-rule="evenodd" clip-rule="evenodd" d="M17.7916 23.3335C17.7916 21.8838 18.9669 20.7085 20.4166 20.7085C21.8663 20.7085 23.0416 21.8838 23.0416 23.3335V26.2502C23.0416 26.7334 22.6499 27.1252 22.1666 27.1252H18.6666C18.1834 27.1252 17.7916 26.7334 17.7916 26.2502V23.3335ZM20.4166 22.4585C19.9334 22.4585 19.5416 22.8503 19.5416 23.3335V25.3752H21.2916V23.3335C21.2916 22.8503 20.8999 22.4585 20.4166 22.4585Z" fill="#D3A45C"/>
</svg>
