<svg width="16" height="15" viewBox="0 0 16 15" fill="none" xmlns="http://www.w3.org/2000/svg">
<path fill-rule="evenodd" clip-rule="evenodd" d="M2.37713 2.90694C2.37698 2.95667 2.36198 3.00537 2.33382 3.04752C2.30567 3.08967 2.26548 3.12358 2.21782 3.14542C2.17016 3.16726 2.11693 3.17615 2.06416 3.17109C2.01139 3.16603 1.96118 3.14722 1.91922 3.11678L0.109173 1.79702C0.0751684 1.77212 0.0476642 1.74028 0.0287478 1.70392C0.00983135 1.66756 0 1.62764 0 1.58718C0 1.54673 0.00983135 1.50681 0.0287478 1.47045C0.0476642 1.43409 0.0751684 1.40225 0.109173 1.37734L1.91922 0.0565222C1.96133 0.0259752 2.01175 0.00713669 2.06473 0.00215547C2.1177 -0.00282575 2.17111 0.00625084 2.21885 0.02835C2.26659 0.0504491 2.30674 0.084681 2.33473 0.127141C2.36271 0.169602 2.37741 0.218581 2.37713 0.268493V1.05672H9.19465V0.266362C9.19464 0.216447 9.20959 0.167532 9.23781 0.125199C9.26602 0.0828656 9.30635 0.0488182 9.35421 0.0269405C9.40207 0.00506277 9.45553 -0.00376433 9.50848 0.00146615C9.56144 0.00669662 9.61176 0.0257741 9.6537 0.0565222L11.4626 1.37628C11.4966 1.40118 11.5241 1.43303 11.543 1.46938C11.562 1.50574 11.5718 1.54567 11.5718 1.58612C11.5718 1.62657 11.562 1.66649 11.543 1.70285C11.5241 1.73921 11.4966 1.77105 11.4626 1.79596L9.6537 3.11678C9.61168 3.14759 9.56126 3.16668 9.5082 3.17187C9.45514 3.17706 9.4016 3.16814 9.3537 3.14613C9.3058 3.12412 9.26548 3.08992 9.23735 3.04743C9.20922 3.00494 9.19443 2.95588 9.19465 2.90587V2.11977H2.37713V2.90694ZM9.76278 5.31531H1.80901C1.65833 5.31531 1.51383 5.37142 1.40728 5.4713C1.30074 5.57118 1.24088 5.70665 1.24088 5.8479V13.3041C1.24088 13.4454 1.30074 13.5809 1.40728 13.6807C1.51383 13.7806 1.65833 13.8367 1.80901 13.8367H9.76278C9.91346 13.8367 10.058 13.7806 10.1645 13.6807C10.2711 13.5809 10.3309 13.4454 10.3309 13.3041V5.8479C10.3309 5.70665 10.2711 5.57118 10.1645 5.4713C10.058 5.37142 9.91346 5.31531 9.76278 5.31531ZM1.80901 4.25013C1.35698 4.25013 0.923462 4.41847 0.603829 4.71811C0.284196 5.01775 0.104628 5.42414 0.104628 5.8479V13.3041C0.104628 13.7279 0.284196 14.1343 0.603829 14.4339C0.923462 14.7336 1.35698 14.9019 1.80901 14.9019H9.76278C10.2148 14.9019 10.6483 14.7336 10.968 14.4339C11.2876 14.1343 11.4672 13.7279 11.4672 13.3041V5.8479C11.4672 5.42414 11.2876 5.01775 10.968 4.71811C10.6483 4.41847 10.2148 4.25013 9.76278 4.25013H1.80901ZM15.7156 6.38049H14.8759V12.7716H15.7156C15.7687 12.7717 15.8206 12.7858 15.8656 12.8122C15.9105 12.8386 15.9467 12.8762 15.97 12.9209C15.9933 12.9656 16.0028 13.0155 15.9974 13.065C15.992 13.1144 15.9719 13.1615 15.9395 13.2008L14.5316 14.8977C14.5051 14.9295 14.4711 14.9553 14.4323 14.9731C14.3935 14.9908 14.3509 15 14.3078 15C14.2646 15 14.2221 14.9908 14.1833 14.9731C14.1445 14.9553 14.1105 14.9295 14.084 14.8977L12.675 13.2008C12.6425 13.1614 12.6224 13.1143 12.617 13.0647C12.6117 13.0151 12.6213 12.9651 12.6447 12.9204C12.6681 12.8757 12.7045 12.8381 12.7496 12.8117C12.7947 12.7854 12.8468 12.7715 12.9 12.7716H13.7397V6.38049H12.9C12.8469 6.38035 12.795 6.36628 12.75 6.33989C12.7051 6.31349 12.6689 6.27582 12.6456 6.23114C12.6223 6.18646 12.6128 6.13656 12.6182 6.08709C12.6236 6.03762 12.6437 5.99055 12.6761 5.95122L14.084 4.25439C14.1105 4.22251 14.1445 4.19673 14.1833 4.179C14.2221 4.16126 14.2646 4.15205 14.3078 4.15205C14.3509 4.15205 14.3935 4.16126 14.4323 4.179C14.4711 4.19673 14.5051 4.22251 14.5316 4.25439L15.9406 5.95122C15.9731 5.99062 15.9932 6.03779 15.9986 6.08735C16.0039 6.13692 15.9943 6.1869 15.9709 6.23162C15.9475 6.27634 15.9111 6.31399 15.866 6.34031C15.8209 6.36662 15.7688 6.38054 15.7156 6.38049Z" fill="#919191"/>
</svg>
