<svg width="24" height="19" viewBox="0 0 24 19" fill="none" xmlns="http://www.w3.org/2000/svg"><path d="M21.429 0h-6C14.022 0 12.782.696 12 1.754 11.218.696 9.978 0 8.571 0h-6A2.583 2.583 0 0 0 0 2.59v13.82C0 17.837 1.153 19 2.571 19h6c1.407 0 2.647-.696 3.429-1.754.782 1.058 2.022 1.754 3.429 1.754h6A2.583 2.583 0 0 0 24 16.41V2.59C24 1.163 22.846 0 21.429 0m-12 15.114a.43.43 0 0 1-.429.431H3.857a.43.43 0 0 1-.428-.431v-.864a.43.43 0 0 1 .428-.432H9a.43.43 0 0 1 .429.432zm0-3.455a.43.43 0 0 1-.429.432H3.857a.43.43 0 0 1-.428-.432v-.864a.43.43 0 0 1 .428-.431H9a.43.43 0 0 1 .429.431zm0-3.454A.43.43 0 0 1 9 8.636H3.857a.43.43 0 0 1-.428-.431V7.34a.43.43 0 0 1 .428-.432H9a.43.43 0 0 1 .429.432zm0-3.455A.43.43 0 0 1 9 5.182H3.857a.43.43 0 0 1-.428-.432v-.864a.43.43 0 0 1 .428-.431H9a.43.43 0 0 1 .429.431zM20.57 15.114a.43.43 0 0 1-.428.431H15a.43.43 0 0 1-.429-.431v-.864a.43.43 0 0 1 .429-.432h5.143a.43.43 0 0 1 .428.432zm0-3.455a.43.43 0 0 1-.428.432H15a.43.43 0 0 1-.429-.432v-.864a.43.43 0 0 1 .429-.431h5.143a.43.43 0 0 1 .428.431zm0-3.454a.43.43 0 0 1-.428.431H15a.43.43 0 0 1-.429-.431V7.34A.43.43 0 0 1 15 6.909h5.143a.43.43 0 0 1 .428.432zm0-3.455a.43.43 0 0 1-.428.432H15a.43.43 0 0 1-.429-.432v-.864A.43.43 0 0 1 15 3.455h5.143a.43.43 0 0 1 .428.431z" fill="#D3A45C"/></svg>