<svg width="25" height="25" viewBox="0 0 25 25" fill="none" xmlns="http://www.w3.org/2000/svg">
<path d="M0 12.5C0 19.4037 5.59625 25 12.5 25C19.4037 25 25 19.4037 25 12.5C25 5.59625 19.4037 0 12.5 0C5.59625 0 0 5.59625 0 12.5ZM22.5 12.5C22.5 15.1522 21.4464 17.6957 19.5711 19.5711C17.6957 21.4464 15.1522 22.5 12.5 22.5C9.84784 22.5 7.3043 21.4464 5.42893 19.5711C3.55357 17.6957 2.5 15.1522 2.5 12.5C2.5 9.84784 3.55357 7.3043 5.42893 5.42893C7.3043 3.55357 9.84784 2.5 12.5 2.5C15.1522 2.5 17.6957 3.55357 19.5711 5.42893C21.4464 7.3043 22.5 9.84784 22.5 12.5ZM20 12.5C20 14.4891 19.2098 16.3968 17.8033 17.8033C16.3968 19.2098 14.4891 20 12.5 20V5C14.4891 5 16.3968 5.79018 17.8033 7.1967C19.2098 8.60322 20 10.5109 20 12.5Z" fill="white"/>
</svg>
