<svg width="14" height="16" viewBox="0 0 14 16" fill="none" xmlns="http://www.w3.org/2000/svg">
<path d="M5.5 3H1.5C1.08334 3 0.729336 2.85433 0.438002 2.563C0.146669 2.27167 0.000668939 1.91733 2.27272e-06 1.5C-0.000664394 1.08267 0.145336 0.728667 0.438002 0.438C0.730669 0.147334 1.08467 0.00133333 1.5 0H12.5C12.9167 0 13.271 0.146 13.563 0.438C13.855 0.73 14.0007 1.084 14 1.5C13.9993 1.916 13.8537 2.27033 13.563 2.563C13.2723 2.85567 12.918 3.00133 12.5 3H8.5V14.5C8.5 14.9167 8.35433 15.271 8.063 15.563C7.77167 15.855 7.41734 16.0007 7 16C6.58267 15.9993 6.22867 15.8537 5.938 15.563C5.64734 15.2723 5.50134 14.918 5.5 14.5V3Z" fill="#D3A45C"/>
</svg>
