<svg width="45" height="44" viewBox="0 0 45 44" fill="none" xmlns="http://www.w3.org/2000/svg">
<path d="M44.4993 23.5372C44.4949 26.7711 44.4707 29.5166 44.2881 31.7715C44.0747 34.3895 43.6369 36.5762 42.6601 38.3912C42.2339 39.1869 41.6927 39.9156 41.0542 40.5537C39.2216 42.3862 36.8897 43.2156 33.933 43.6116C31.0445 44.001 27.3398 44.001 22.6165 44.001H22.3833C17.6578 44.001 13.9575 44.001 11.0668 43.6116C8.11228 43.2156 5.77814 42.3862 3.94779 40.5537C2.32424 38.9301 1.48386 36.9106 1.03947 34.4049C0.599485 31.9409 0.520288 28.8786 0.504888 25.0749C0.500488 24.1069 0.500488 23.084 0.500488 22.0016V21.8828C0.500488 17.1573 0.500488 13.457 0.889878 10.5663C1.28587 7.61179 2.11524 5.27766 3.94779 3.44731C5.77814 1.61476 8.11228 0.785379 11.0668 0.38939C13.6363 0.0439992 16.9406 0.00439988 20.9643 0C21.3716 0 21.7622 0.161782 22.0501 0.449755C22.3381 0.737728 22.4999 1.1283 22.4999 1.53556C22.4999 1.94281 22.3381 2.33339 22.0501 2.62136C21.7622 2.90933 21.3716 3.07112 20.9643 3.07112C16.8834 3.07552 13.8497 3.11072 11.476 3.42971C8.86026 3.7817 7.2829 4.45048 6.11693 5.61645C4.95097 6.78241 4.28438 8.36197 3.93239 10.9799C3.5738 13.6418 3.5694 17.1353 3.5694 22.0016V23.7264L5.61975 21.9356C6.51849 21.1493 7.68246 20.7338 8.87598 20.7735C10.0695 20.8131 11.2034 21.3048 12.048 22.149L20.8257 30.9268C21.5068 31.6082 22.4064 32.0275 23.3662 32.1108C24.3259 32.1941 25.2843 31.936 26.0726 31.3821L26.6842 30.9532C27.8211 30.1541 29.1955 29.7644 30.5826 29.848C31.9697 29.9315 33.2874 30.4832 34.3202 31.4129L40.1126 36.6268C40.6956 35.4014 41.0432 33.7933 41.228 31.5229C41.4018 29.3846 41.426 26.7887 41.4282 23.5372C41.4282 23.1299 41.59 22.7393 41.8779 22.4514C42.1659 22.1634 42.5565 22.0016 42.9637 22.0016C43.371 22.0016 43.7616 22.1634 44.0495 22.4514C44.3375 22.7393 44.4993 23.1299 44.4993 23.5372Z" fill="url(#paint0_linear_16_762)"/>
<path fill-rule="evenodd" clip-rule="evenodd" d="M34.5992 19.8017C29.9331 19.8017 27.599 19.8017 26.1492 18.3519C24.6995 16.9021 24.6995 14.568 24.6995 9.90193C24.6995 5.23585 24.6995 2.90172 26.1492 1.45196C27.599 0.00219713 29.9331 0.00219727 34.5992 0.00219727C39.2653 0.00219727 41.5994 0.00219713 43.0492 1.45196C44.4989 2.90172 44.4989 5.23585 44.4989 9.90193C44.4989 14.568 44.4989 16.9021 43.0492 18.3519C41.5994 19.8017 39.2653 19.8017 34.5992 19.8017ZM39.0651 7.63599L35.7652 4.33608C35.4558 4.0271 35.0364 3.85354 34.5992 3.85354C34.162 3.85354 33.7426 4.0271 33.4332 4.33608L30.1333 7.63599C29.8419 7.94876 29.6832 8.36246 29.6907 8.78991C29.6983 9.21736 29.8714 9.62519 30.1737 9.9275C30.476 10.2298 30.8839 10.403 31.3113 10.4105C31.7388 10.418 32.1525 10.2594 32.4653 9.96793L32.9492 9.48394V14.3018C32.9492 14.7394 33.1231 15.1591 33.4325 15.4685C33.7419 15.7779 34.1616 15.9518 34.5992 15.9518C35.0368 15.9518 35.4565 15.7779 35.7659 15.4685C36.0753 15.1591 36.2491 14.7394 36.2491 14.3018V9.48394L36.7331 9.96793C36.8842 10.13 37.0663 10.2601 37.2687 10.3502C37.4711 10.4404 37.6896 10.4889 37.9112 10.4928C38.1327 10.4967 38.3527 10.456 38.5582 10.373C38.7636 10.29 38.9503 10.1665 39.107 10.0098C39.2636 9.85313 39.3871 9.6665 39.4701 9.46105C39.5531 9.25561 39.5939 9.03555 39.59 8.81401C39.586 8.59247 39.5376 8.37398 39.4474 8.17159C39.3572 7.9692 39.2272 7.78704 39.0651 7.63599Z" fill="url(#paint1_linear_16_762)"/>
<defs>
<linearGradient id="paint0_linear_16_762" x1="22.4999" y1="0" x2="22.4999" y2="44.001" gradientUnits="userSpaceOnUse">
<stop stop-color="white"/>
<stop offset="1" stop-color="#999999"/>
</linearGradient>
<linearGradient id="paint1_linear_16_762" x1="34.5992" y1="0.00219727" x2="34.5992" y2="19.8017" gradientUnits="userSpaceOnUse">
<stop stop-color="white"/>
<stop offset="1" stop-color="#999999"/>
</linearGradient>
</defs>
</svg>
